<svg xmlns="http://www.w3.org/2000/svg" viewBox="0 0 481.89 481.89"><defs><style>.cls-1{fill:#013a59;}.cls-2{fill:#0079ba;}.cls-2,.cls-3,.cls-4,.cls-5{fill-rule:evenodd;}.cls-3{fill:#035e8f;}.cls-4{fill:#04b3bf;}.cls-5{fill:#fff;}</style></defs><title>Klikpayroll SVG</title><g id="Layer_1-2" data-name="Layer 1"><rect class="cls-1" x="-0.27" y="-1.53" width="483.19" height="483.42"/><polygon class="cls-2" points="23.84 260.77 43.75 291.19 83.79 291.19 63.88 260.77 101.91 202.67 61.87 202.67 23.84 260.77"/><polygon class="cls-3" points="85.97 227.03 101.91 202.67 70.02 202.67 85.97 227.03"/><polygon class="cls-4" points="114.22 202.67 74.17 202.67 93.19 231.72 74.17 260.77 114.22 260.77 133.23 231.72 114.22 202.67"/><path class="cls-5" d="M154,224.46h8.62v27.47l12.75-14.18h10.77l-14.74,16.43,16.6,18H177.22L162.57,256.3v15.87H154V224.46Zm34.9,0h8.62v47.71h-8.62V224.46Zm18.15-.84a5.27,5.27,0,0,1,3.88,1.64,5.6,5.6,0,0,1,0,7.89,5.24,5.24,0,0,1-3.86,1.62,5.3,5.3,0,0,1-3.92-1.65,5.49,5.49,0,0,1-1.63-4,5.5,5.5,0,0,1,5.5-5.48Zm-4.34,14.13h8.62v34.42h-8.62V237.75Zm14.79-13.29h8.62v27.47l12.74-14.18h10.77l-14.74,16.43,16.6,18H240.72L226.07,256.3v15.87h-8.62V224.46Zm44.42,13.29v3.78a16.35,16.35,0,0,1,5.06-3.47A15.4,15.4,0,0,1,284.19,242q4.71,5.1,4.71,13A18,18,0,0,1,284,267.85,15.33,15.33,0,0,1,272.49,273,14.45,14.45,0,0,1,267,272a16.66,16.66,0,0,1-5.09-3.47v16.26h-8.62v-47Zm9.06,7.07a9,9,0,0,0-6.76,2.77,10,10,0,0,0-2.69,7.27,10.3,10.3,0,0,0,2.69,7.41,8.91,8.91,0,0,0,6.76,2.83,8.8,8.8,0,0,0,6.65-2.87,10.31,10.31,0,0,0,2.7-7.34,10.12,10.12,0,0,0-2.66-7.24,8.74,8.74,0,0,0-6.69-2.83Zm48.86-7.07h8.62v34.42h-8.62V268.5a16.84,16.84,0,0,1-5.08,3.45,14.32,14.32,0,0,1-5.52,1.06,15.39,15.39,0,0,1-11.56-5.16A18,18,0,0,1,292.76,255a18.46,18.46,0,0,1,4.72-13,15.43,15.43,0,0,1,17.28-3.92,16.23,16.23,0,0,1,5,3.47v-3.78Zm-9.09,7.07a8.72,8.72,0,0,0-6.66,2.83,10.12,10.12,0,0,0-2.66,7.24,10.31,10.31,0,0,0,2.7,7.34,9.31,9.31,0,0,0,13.41,0,10.3,10.3,0,0,0,2.69-7.41,10,10,0,0,0-2.69-7.27,9,9,0,0,0-6.79-2.77Zm20.84-7.07h8.85l8.92,21.55,9.87-21.55H368l-21.53,47h-8.84l7-15.11-13.11-31.88Zm37.7,0h7.46v4.38a9.21,9.21,0,0,1,3.17-3.89,7.65,7.65,0,0,1,4.34-1.33,8,8,0,0,1,3.5.88L385,245.25a5.86,5.86,0,0,0-2.49-.76c-1.32,0-2.44.82-3.35,2.46s-1.37,4.87-1.37,9.66l0,1.68v13.88h-8.62V237.75Zm37.21-.84a18.32,18.32,0,0,1,9.17,2.43,17.78,17.78,0,0,1,9.12,15.59,18,18,0,0,1-2.42,9.08,17.48,17.48,0,0,1-6.61,6.61,18.35,18.35,0,0,1-9.23,2.39,17.24,17.24,0,0,1-12.66-5.25,18.08,18.08,0,0,1,12.63-30.85Zm.13,8.1a8.92,8.92,0,0,0-6.71,2.79,9.94,9.94,0,0,0-2.68,7.15,10.1,10.1,0,0,0,2.65,7.25,9.51,9.51,0,0,0,13.46,0,11,11,0,0,0,0-14.4,9,9,0,0,0-6.76-2.75Zm22.54-20.55h8.62v47.71h-8.62V224.46Zm13.81,0h8.62v47.71h-8.62Z"/></g></svg>