<svg xmlns="http://www.w3.org/2000/svg" viewBox="0 0 481.89 481.89"><defs><style>.cls-1{fill:#04b3bf;}.cls-2{fill:#fff;fill-rule:evenodd;}</style></defs><title>Klikpayroll SVG</title><g id="Layer_1-3" data-name="Layer 1"><rect class="cls-1" x="-6.3" y="-3.67" width="489.89" height="487.98"/><polygon class="cls-2" points="24.78 244.3 44.7 274.72 84.74 274.72 64.83 244.3 89.36 206.83 86.91 210.56 70.97 186.2 62.82 186.2 24.78 244.3"/><polygon class="cls-2" points="115.16 186.2 75.12 186.2 94.14 215.25 75.12 244.3 115.16 244.3 134.18 215.25 115.16 186.2"/><path class="cls-2" d="M154.9,208h8.62v27.47l12.75-14.18H187l-14.75,16.43,16.61,18H178.17l-14.65-15.87v15.87H154.9V208Zm34.9,0h8.62v47.7H189.8V208Zm18.14-.84a5.27,5.27,0,0,1,3.89,1.64,5.6,5.6,0,0,1,0,7.88,5.18,5.18,0,0,1-3.85,1.62,5.28,5.28,0,0,1-3.92-1.65,5.49,5.49,0,0,1-1.63-4,5.5,5.5,0,0,1,5.49-5.47Zm-4.33,14.13h8.62v34.41h-8.62V221.28ZM218.4,208H227v27.47l12.74-14.18h10.77l-14.74,16.43,16.6,18H241.66L227,239.82v15.87H218.4V208Zm44.42,13.29v3.78a16.18,16.18,0,0,1,5.06-3.47,14.75,14.75,0,0,1,5.82-1.16,15.07,15.07,0,0,1,11.44,5.08q4.71,5.09,4.71,13A17.94,17.94,0,0,1,285,251.37a15.3,15.3,0,0,1-11.54,5.16,14.26,14.26,0,0,1-5.53-1.06,16.61,16.61,0,0,1-5.09-3.46v16.25H254.2v-47Zm9.05,7.06a9,9,0,0,0-6.75,2.78,10,10,0,0,0-2.69,7.27,10.32,10.32,0,0,0,2.69,7.41,9.3,9.3,0,0,0,13.41-.05,10.29,10.29,0,0,0,2.7-7.33,10.16,10.16,0,0,0-2.66-7.25,8.76,8.76,0,0,0-6.7-2.83Zm48.87-7.06h8.62v34.41h-8.62V252a16.79,16.79,0,0,1-5.08,3.44,14.18,14.18,0,0,1-5.52,1.06,15.34,15.34,0,0,1-11.56-5.16,17.94,17.94,0,0,1-4.87-12.82q0-8,4.72-13a15.06,15.06,0,0,1,11.45-5.08,14.71,14.71,0,0,1,5.82,1.16,16,16,0,0,1,5,3.47v-3.78Zm-9.09,7.06a8.71,8.71,0,0,0-6.66,2.83,10.16,10.16,0,0,0-2.66,7.25,10.29,10.29,0,0,0,2.7,7.33,9.3,9.3,0,0,0,13.41.05,10.32,10.32,0,0,0,2.69-7.41,10,10,0,0,0-2.69-7.27,9.06,9.06,0,0,0-6.79-2.78Zm20.84-7.06h8.85l8.91,21.55,9.88-21.55H369l-21.52,47H338.6l7-15.11-13.11-31.87Zm37.7,0h7.45v4.37a9.29,9.29,0,0,1,3.18-3.89,7.73,7.73,0,0,1,4.34-1.33,8,8,0,0,1,3.5.89L386,228.77a5.89,5.89,0,0,0-2.48-.75c-1.32,0-2.44.82-3.35,2.46s-1.37,4.86-1.37,9.66l0,1.67v13.88h-8.62V221.28Zm37.21-.85a18.32,18.32,0,0,1,9.17,2.43,17.78,17.78,0,0,1,9.12,15.59,18,18,0,0,1-2.42,9.09,17.62,17.62,0,0,1-6.61,6.61,18.45,18.45,0,0,1-9.23,2.38,18.05,18.05,0,0,1,0-36.1Zm.13,8.11a8.89,8.89,0,0,0-6.71,2.78,10,10,0,0,0-2.68,7.15,10.1,10.1,0,0,0,2.65,7.25,8.87,8.87,0,0,0,6.71,2.78,9,9,0,0,0,6.75-2.81,11,11,0,0,0,0-14.4,9,9,0,0,0-6.76-2.75ZM430.07,208h8.62v47.7h-8.62V208Zm13.81,0h8.62v47.7h-8.62Z"/></g></svg>