<svg id="Layer_1" data-name="Layer 1" xmlns="http://www.w3.org/2000/svg" viewBox="0 0 481.89 481.89"><defs><style>.cls-1{fill:#0079ba;}.cls-1,.cls-2,.cls-3,.cls-4{fill-rule:evenodd;}.cls-2{fill:#035e8f;}.cls-3{fill:#04b3bf;}.cls-4{fill:#055282;}</style></defs><title>Klikpayroll SVG</title><polygon class="cls-1" points="27.09 254.79 47 285.21 87.04 285.21 67.13 254.79 105.16 196.68 65.12 196.68 27.09 254.79"/><polygon class="cls-2" points="89.22 221.04 105.16 196.68 73.27 196.68 89.22 221.04"/><polygon class="cls-3" points="117.47 196.68 77.42 196.68 96.44 225.74 77.42 254.79 117.47 254.79 136.48 225.74 117.47 196.68"/><path class="cls-4" d="M157.2,218.48h8.62V246l12.75-14.19h10.77L174.6,248.19l16.6,18H180.47l-14.65-15.87v15.87H157.2v-47.7Zm34.9,0h8.62v47.7H192.1v-47.7Zm18.15-.85a5.24,5.24,0,0,1,3.88,1.65,5.59,5.59,0,0,1,0,7.88,5.24,5.24,0,0,1-3.86,1.62,5.3,5.3,0,0,1-3.92-1.65,5.49,5.49,0,0,1-1.63-4,5.5,5.5,0,0,1,5.5-5.48Zm-4.34,14.13h8.62v34.42h-8.62V231.76Zm14.79-13.28h8.62V246l12.74-14.19h10.77l-14.74,16.43,16.6,18H244l-14.65-15.87v15.87H220.7v-47.7Zm44.42,13.28v3.78a16.14,16.14,0,0,1,5.06-3.46,14.75,14.75,0,0,1,5.82-1.16A15.06,15.06,0,0,1,287.44,236q4.71,5.08,4.71,13a18,18,0,0,1-4.87,12.83A15.33,15.33,0,0,1,275.74,267a14.45,14.45,0,0,1-5.53-1.06,16.66,16.66,0,0,1-5.09-3.47v16.26H256.5v-47Zm9.06,7.07a9,9,0,0,0-6.76,2.77,10,10,0,0,0-2.69,7.27,10.3,10.3,0,0,0,2.69,7.41,8.91,8.91,0,0,0,6.76,2.83,8.8,8.8,0,0,0,6.65-2.87,10.29,10.29,0,0,0,2.7-7.34,10.15,10.15,0,0,0-2.66-7.24,8.74,8.74,0,0,0-6.69-2.83ZM323,231.76h8.62v34.42H323v-3.67A16.84,16.84,0,0,1,318,266a14.32,14.32,0,0,1-5.52,1.06,15.39,15.39,0,0,1-11.56-5.16A18,18,0,0,1,296,249q0-8,4.72-13a15.08,15.08,0,0,1,11.45-5.08,14.68,14.68,0,0,1,5.82,1.16,16,16,0,0,1,5,3.46v-3.78ZM314,238.83a8.72,8.72,0,0,0-6.66,2.83,10.15,10.15,0,0,0-2.66,7.24,10.29,10.29,0,0,0,2.7,7.34,9.31,9.31,0,0,0,13.41,0,10.3,10.3,0,0,0,2.69-7.41,10,10,0,0,0-2.69-7.27,9.06,9.06,0,0,0-6.79-2.77Zm20.84-7.07h8.85l8.92,21.55,9.87-21.55h8.84l-21.53,47H340.9l7-15.11-13.11-31.88Zm37.7,0H380v4.38a9.21,9.21,0,0,1,3.17-3.89,7.65,7.65,0,0,1,4.34-1.33,7.89,7.89,0,0,1,3.5.89l-2.67,7.45a5.86,5.86,0,0,0-2.49-.76c-1.32,0-2.44.82-3.35,2.47s-1.37,4.86-1.37,9.65l0,1.68v13.88h-8.62V231.76Zm37.21-.84a18.32,18.32,0,0,1,9.17,2.43,17.49,17.49,0,0,1,6.71,6.59,17.68,17.68,0,0,1,2.41,9,18,18,0,0,1-2.42,9.08,17.48,17.48,0,0,1-6.61,6.61,18.35,18.35,0,0,1-9.23,2.39,17.24,17.24,0,0,1-12.66-5.25,18.08,18.08,0,0,1,12.63-30.85Zm.13,8.1a8.92,8.92,0,0,0-6.71,2.79,9.94,9.94,0,0,0-2.68,7.15,10.1,10.1,0,0,0,2.65,7.25,9.51,9.51,0,0,0,13.46,0,11,11,0,0,0,0-14.39,8.94,8.94,0,0,0-6.76-2.76Zm22.54-20.54H441v47.7h-8.62v-47.7Zm13.81,0h8.62v47.7h-8.62Z"/></svg>